HIERARCHY
ROOT Hips
{
 OFFSET 0.000000 0.000000 0.000000
 CHANNELS 6 Xposition Yposition Zposition Yrotation Xrotation Zrotation
 JOINT Chest
 {
  OFFSET 0.000000 9.585900 0.002600
  CHANNELS 3 Yrotation Xrotation Zrotation
  JOINT Chest2
  {
   OFFSET 0.000000 9.601200 -0.005300
   CHANNELS 3 Yrotation Xrotation Zrotation
   JOINT Chest3
   {
    OFFSET 0.000000 9.561800 0.000000
    CHANNELS 3 Yrotation Xrotation Zrotation
    JOINT Chest4
    {
     OFFSET 0.000000 9.552100 0.000000
     CHANNELS 3 Yrotation Xrotation Zrotation
     JOINT Neck
     {
      OFFSET 0.000000 14.453000 0.000000
      CHANNELS 3 Yrotation Xrotation Zrotation
      JOINT Head
      {
       OFFSET 0.000000 8.936500 -0.011300
       CHANNELS 3 Yrotation Xrotation Zrotation
       End Site
       {
        OFFSET 0.000000 17.073600 -0.006000
       }
      }
     }
     JOINT RightCollar
     {
      OFFSET -2.921100 9.558500 0.000000
      CHANNELS 3 Yrotation Xrotation Zrotation
      JOINT RightShoulder
      {
       OFFSET -13.519700 0.000000 0.000000
       CHANNELS 3 Yrotation Xrotation Zrotation
       JOINT RightElbow
       {
        OFFSET 0.000000 -29.696600 0.000000
        CHANNELS 3 Yrotation Xrotation Zrotation
        JOINT RightWrist
        {
         OFFSET 0.000000 -24.004700 0.000000
         CHANNELS 3 Yrotation Xrotation Zrotation
         End Site
         {
          OFFSET 0.000000 -17.728500 0.000000
         }
        }
       }
      }
     }
     JOINT LeftCollar
     {
      OFFSET 2.921100 9.558500 0.000000
      CHANNELS 3 Yrotation Xrotation Zrotation
      JOINT LeftShoulder
      {
       OFFSET 13.519700 0.000000 0.000000
       CHANNELS 3 Yrotation Xrotation Zrotation
       JOINT LeftElbow
       {
        OFFSET 0.000000 -29.696600 0.000000
        CHANNELS 3 Yrotation Xrotation Zrotation
        JOINT LeftWrist
        {
         OFFSET 0.000000 -24.004700 0.000000
         CHANNELS 3 Yrotation Xrotation Zrotation
         End Site
         {
          OFFSET 0.000000 -17.728500 0.000000
         }
        }
       }
      }
     }
    }
   }
  }
 }
 JOINT RightHip
 {
  OFFSET -7.771700 -0.012900 -0.001300
  CHANNELS 3 Yrotation Xrotation Zrotation
  JOINT RightKnee
  {
   OFFSET 0.000000 -40.869800 0.001200
   CHANNELS 3 Yrotation Xrotation Zrotation
   JOINT RightAnkle
   {
    OFFSET 0.000000 -39.717900 0.002100
    CHANNELS 3 Yrotation Xrotation Zrotation
    JOINT RightToe
    {
     OFFSET 0.000000 -4.965400 11.033500
     CHANNELS 3 Yrotation Xrotation Zrotation
     End Site
     {
      OFFSET 0.000000 -1.423100 5.872300
     }
    }
   }
  }
 }
 JOINT LeftHip
 {
  OFFSET 7.771700 -0.012900 -0.001300
  CHANNELS 3 Yrotation Xrotation Zrotation
  JOINT LeftKnee
  {
   OFFSET 0.000000 -40.869800 0.001200
   CHANNELS 3 Yrotation Xrotation Zrotation
   JOINT LeftAnkle
   {
    OFFSET 0.000000 -39.717900 0.002100
    CHANNELS 3 Yrotation Xrotation Zrotation
    JOINT LeftToe
    {
     OFFSET 0.000000 -4.965400 11.033500
     CHANNELS 3 Yrotation Xrotation Zrotation
     End Site
     {
      OFFSET 0.000000 -1.423100 5.872300
     }
    }
   }
  }
 }
}
MOTION
Frames: 5
Frame Time: 0.008333
0.000000 85.388000 0.000000 0.000000 -5.767877 0.000000 0.000000 11.653817 0.000000 0.000000 -5.885947 0.000000 0.000000 -0.000000 0.000000 0.000000 -0.000000 0.000000 0.000000 12.528835 0.000000 0.000000 0.711642 0.000000 0.000000 -0.000000 0.000000 0.000000 0.000000 -90.000000 0.000000 -2.309062 0.000000 0.000000 2.309062 0.000000 0.000000 -0.000000 0.000000 0.000000 -0.000000 90.000000 0.000000 -2.309062 0.000000 0.000000 2.309062 0.000000 0.000000 8.520406 0.000000 0.000000 1.905762 0.000000 -0.000000 -4.658285 0.000000 0.000000 -0.000000 0.000000 0.000000 8.520406 0.000000 0.000000 1.905762 0.000000 -0.000000 -4.658285 0.000000 0.000000 -0.000000 0.000000
-25.807063 62.139439 11.971595 178.087038 -51.283152 -1.080791 5.823478 25.874715 1.290585 0.846834 4.232411 0.136993 1.405695 6.878130 0.259354 4.564303 21.149511 1.390257 7.706259 15.518650 5.607981 12.325452 -7.130723 7.646242 13.095013 1.208332 8.805769 22.053966 -45.763506 -24.885321 -68.885177 -59.859714 95.960030 -0.932580 -4.938235 0.286092 -9.659106 3.579722 0.362764 -8.173430 -11.822580 17.096686 169.323649 -74.116036 172.869386 2.215990 -9.599166 4.554515 2.465990 -15.513112 -6.552737 -1.709201 61.743523 -5.443011 1.600126 -7.950343 10.729108 0.191150 -0.612902 0.162138 -4.104668 -12.879937 1.267507 25.188486 76.602575 25.772609 0.737590 -11.719375 -3.237192 0.353346 0.606106 0.190828
-25.807320 62.133685 11.964020 178.159239 -51.219876 -1.138279 5.793765 25.862585 1.293864 0.863061 4.287023 0.139655 1.382454 6.809437 0.255885 4.547617 21.201488 1.371888 7.652237 15.285465 5.579069 12.233947 -7.526246 7.601254 13.116751 1.158650 8.767777 21.793611 -45.687331 -24.881712 -71.071833 -60.593556 98.232598 -0.448143 -4.624769 0.991108 -9.623933 3.483369 0.357318 -8.127659 -11.815774 17.087991 169.236503 -74.019131 173.013038 2.236427 -9.671516 4.569278 2.457224 -15.576039 -6.539301 -1.737461 61.769040 -5.481216 1.590141 -7.946516 10.749571 0.183288 -0.612719 0.153535 -4.107452 -12.958163 1.325661 25.026678 76.649284 25.610295 0.662666 -11.732452 -3.226711 0.409003 0.602522 0.221995
-25.811833 62.127798 11.955000 178.218731 -51.153988 -1.163045 5.746984 25.815969 1.264503 0.866071 4.303243 0.138345 1.385040 6.842019 0.251275 4.531926 21.201112 1.359838 7.591858 15.075992 5.550967 12.132030 -7.913220 7.559940 13.131168 1.140052 8.727164 21.541993 -45.591748 -24.901794 -73.380128 -61.262992 100.621777 0.052888 -4.295402 1.720565 -9.571800 3.409319 0.320919 -8.144848 -11.800875 17.127922 169.175613 -73.923017 173.170765 2.255785 -9.741112 4.591225 2.460441 -15.642134 -6.551891 -1.777482 61.797280 -5.531935 1.582523 -7.948809 10.766562 0.179302 -0.608832 0.150789 -4.128036 -13.033461 1.327334 25.013402 76.672067 25.583416 0.655997 -11.754487 -3.212061 0.405815 0.614722 0.224191
-25.817719 62.123879 11.943836 178.264140 -51.102374 -1.171591 5.727545 25.831467 1.239977 0.862512 4.302760 0.136236 1.390202 6.900636 0.239758 4.508748 21.109494 1.358945 7.522044 14.901529 5.520139 12.016685 -8.291561 7.523623 13.134386 1.161006 8.682740 21.307337 -45.473577 -24.950132 -75.799707 -61.859374 103.114256 0.583941 -3.950719 2.447189 -9.536421 3.378741 0.287101 -8.148288 -11.799762 17.155220 169.129502 -73.824664 173.316092 2.274762 -9.811510 4.614341 2.464154 -15.694428 -6.570076 -1.829927 61.825719 -5.599490 1.591291 -7.951671 10.778642 0.168160 -0.620409 0.160352 -4.147950 -13.090318 1.311966 25.025896 76.687462 25.580730 0.670584 -11.772848 -3.199558 0.396598 0.626112 0.215294
